<svg xmlns="http://www.w3.org/2000/svg" width="14" height="15" fill="none" xmlns:v="https://vecta.io/nano"><path d="M6.232 10.232V5h1.536v5.232H6.232zm.784-5.808c-.245 0-.448-.059-.608-.176s-.24-.304-.24-.56c0-.288.08-.48.24-.576.16-.107.363-.16.608-.16.213 0 .4.053.56.16.171.096.256.288.256.576 0 .267-.085.459-.256.576-.16.107-.347.16-.56.16zM7 14.216c-.96 0-1.861-.181-2.704-.544-.832-.352-1.568-.843-2.208-1.472C1.459 11.56.963 10.824.6 9.992.248 9.149.072 8.248.072 7.288S.248 5.432.6 4.6c.363-.843.859-1.579 1.488-2.208A6.89 6.89 0 0 1 4.296.904C5.139.541 6.04.36 7 .36s1.856.181 2.688.544c.843.352 1.579.848 2.208 1.488.64.629 1.136 1.365 1.488 2.208.363.832.544 1.728.544 2.688s-.181 1.861-.544 2.704a6.89 6.89 0 0 1-1.488 2.208 6.79 6.79 0 0 1-2.208 1.472c-.832.363-1.728.544-2.688.544zm0-1.424c.768 0 1.483-.139 2.144-.416a5.61 5.61 0 0 0 1.744-1.184c.512-.512.907-1.099 1.184-1.76.288-.672.432-1.387.432-2.144a5.31 5.31 0 0 0-.432-2.144c-.277-.661-.672-1.243-1.184-1.744-.501-.512-1.088-.907-1.76-1.184A5.27 5.27 0 0 0 7 1.784a5.31 5.31 0 0 0-2.144.432c-.661.277-1.248.672-1.76 1.184a5.56 5.56 0 0 0-1.184 1.76c-.277.661-.416 1.371-.416 2.128 0 .768.139 1.483.416 2.144a5.81 5.81 0 0 0 1.184 1.76 5.81 5.81 0 0 0 1.76 1.184c.672.277 1.387.416 2.144.416z" fill="#54585b"/><path d="M6.232 10.232h-1v1h1v-1zm0-5.232V4h-1v1h1zm1.536 0h1V4h-1v1zm0 5.232v1h1v-1h-1zm-1.36-5.984l.591-.806h0l-.591.806zm0-1.136l.515.857.02-.012.02-.013-.555-.832zm1.168 0l-.555.832.031.021.033.019.49-.872zm0 1.152l.555.832.006-.004.006-.004-.567-.824zm-3.28 9.408l.395-.919-.006-.002-.39.921zM2.088 12.2l-.713.701.006.006.006.006.701-.713zM.6 9.992l-.923.385.003.007.003.007.917-.4zM.6 4.6l-.919-.395-.002.006.921.39zm1.488-2.208l-.707-.707h0l.707.707zM4.296.904l.39.921.006-.002-.395-.919zm5.392 0l-.4.917.007.003.007.003.385-.923zm2.208 1.488l-.713.701.006.006.006.006.701-.713zM13.384 4.6l-.923.385.003.007.003.007.917-.4zm0 5.392l-.919-.395-.002.006.921.39zM11.896 12.2l.707.707h0l-.707-.707zm-2.208 1.472l-.385-.923-.007.003-.007.003.4.917zm-.544-1.296l.387.922.013-.005-.399-.917zm1.744-1.184l.707.707h0l-.707-.707zm1.184-1.76l-.919-.394-.003.007.922.387zm0-4.288l-.922.387.006.013.917-.399zM10.888 3.4l-.714.7.007.008.008.007.7-.715zm-1.76-1.184l-.399.917.009.004.009.004.381-.924zm-4.272 0l.387.922.013-.005-.399-.917zM3.096 3.4l-.707-.707h0l.707.707zM1.912 5.16l-.919-.394-.003.007.922.387zm0 4.272l-.922.387.005.013.917-.399zm1.184 1.76l-.715.7.007.008.008.007.7-.714zm1.76 1.184l-.399.917.009.004.009.004.381-.924zm2.376-2.144V5h-2v5.232h2zM6.232 6h1.536V4H6.232v2zm.536-1v5.232h2V5h-2zm1 4.232H6.232v2h1.536v-2zm-.752-5.808c-.043 0-.06-.005-.058-.005.023.01.032.015.041.022L5.817 5.054c.369.27.792.37 1.199.37v-2zm-.017.018a.46.46 0 0 1 .148.184c.025.059.021.089.021.062h-2c0 .473.159 1.008.649 1.366l1.183-1.613zm.169.246c0-.059.009-.038-.017.025-.032.077-.104.182-.229.257L5.894 2.255c-.602.361-.726.998-.726 1.433h2zm-.205.256c-.02.013-.032.016-.028.015s.031-.007.082-.007v-2c-.389 0-.798.085-1.163.328l1.109 1.664zm.053.008c.023 0 .03.003.025.002-.013-.005-.017-.008-.02-.009L8.131 2.28c-.342-.228-.726-.328-1.115-.328v2zm.07.032a.57.57 0 0 1-.145-.117.52.52 0 0 1-.086-.132c-.031-.07-.022-.099-.022-.046h2c0-.462-.145-1.099-.766-1.448l-.981 1.743zm-.254-.296c0 .03-.005-.001.022-.062.031-.07.086-.138.155-.186l1.133 1.648c.519-.357.689-.91.689-1.4h-2zm.189-.256l.02-.009c.004-.001-.002.002-.025.002v2c.388 0 .773-.1 1.115-.328L7.021 3.432zM7 13.216c-.83 0-1.597-.156-2.309-.462l-.791 1.837c.973.419 2.01.625 3.099.625v-2zm-2.314-.465c-.717-.303-1.347-.724-1.896-1.264l-1.402 1.426c.73.718 1.572 1.279 2.52 1.68l.779-1.842zm-1.885-1.252c-.543-.552-.97-1.185-1.284-1.906l-1.833.799c.411.943.976 1.781 1.692 2.509l1.426-1.402zM1.523 9.607c-.298-.714-.451-1.484-.451-2.319h-2c0 1.085.2 2.118.605 3.089l1.845-.771zm-.451-2.319c0-.835.152-1.597.449-2.298L-.321 4.21c-.407.963-.607 1.992-.607 3.078h2zm.447-2.293c.314-.73.74-1.359 1.277-1.896L1.381 1.685C.659 2.407.093 3.249-.319 4.205l1.837.791zm1.277-1.896a5.89 5.89 0 0 1 1.891-1.274L3.906-.017a7.89 7.89 0 0 0-2.525 1.702l1.414 1.414zm1.896-1.277C5.403 1.516 6.17 1.36 7 1.36v-2c-1.09 0-2.126.207-3.099.625l.791 1.837zM7 1.36c.831 0 1.59.156 2.288.461l.799-1.833C9.122-.433 8.089-.64 7-.64v2zm2.303.467c.722.302 1.346.723 1.88 1.266l1.426-1.402c-.724-.737-1.572-1.307-2.536-1.71l-.771 1.845zm1.892 1.278a5.67 5.67 0 0 1 1.266 1.88l1.845-.771c-.402-.963-.973-1.811-1.71-2.536l-1.402 1.426zM12.467 5c.305.699.461 1.458.461 2.288h2c0-1.089-.207-2.122-.627-3.088L12.467 5zm.461 2.288c0 .83-.156 1.597-.463 2.309l1.837.791c.419-.973.626-2.01.626-3.099h-2zm-.465 2.314a5.89 5.89 0 0 1-1.274 1.891l1.414 1.414a7.89 7.89 0 0 0 1.702-2.525l-1.842-.779zm-1.274 1.891a5.79 5.79 0 0 1-1.886 1.256l.771 1.845a7.79 7.79 0 0 0 2.53-1.688l-1.414-1.414zm-1.9 1.262c-.699.305-1.458.461-2.288.461v2c1.089 0 2.122-.207 3.088-.627l-.799-1.833zM7 13.792c.891 0 1.738-.162 2.531-.494l-.773-1.844c-.53.222-1.113.338-1.757.338v2zm2.543-.499a6.61 6.61 0 0 0 2.052-1.394l-1.414-1.414a4.61 4.61 0 0 1-1.436.974l.799 1.834zm2.052-1.394c.603-.603 1.071-1.298 1.399-2.08l-1.844-.773c-.227.54-.548 1.019-.969 1.44l1.414 1.414zm1.396-2.073c.343-.801.513-1.65.513-2.538h-2c0 .627-.118 1.207-.351 1.75l1.838.788zm.513-2.538a6.31 6.31 0 0 0-.515-2.543l-1.834.799c.23.527.349 1.105.349 1.745h2zm-.51-2.531a6.27 6.27 0 0 0-1.407-2.072l-1.399 1.429a4.27 4.27 0 0 1 .961 1.416l1.844-.773zM11.603 2.7c-.597-.61-1.298-1.081-2.093-1.409L8.747 3.14c.549.226 1.022.545 1.427.959L11.603 2.7zM9.527 1.299A6.27 6.27 0 0 0 7 .784v2c.627 0 1.2.118 1.729.349l.799-1.834zM7 .784a6.31 6.31 0 0 0-2.543.515l.799 1.834c.527-.23 1.105-.349 1.745-.349v-2zm-2.531.51c-.782.328-1.477.796-2.08 1.399l1.414 1.414c.421-.421.899-.742 1.44-.969l-.773-1.844zm-2.08 1.399A6.56 6.56 0 0 0 .993 4.766l1.838.788a4.56 4.56 0 0 1 .972-1.447L2.389 2.693zM.99 4.773C.658 5.564.496 6.405.496 7.288h2c0-.632.115-1.209.338-1.741L.99 4.773zM.496 7.288c0 .891.162 1.738.494 2.531l1.844-.773c-.222-.53-.338-1.113-.338-1.757h-2zm.499 2.543a6.81 6.81 0 0 0 1.386 2.06l1.429-1.399a4.81 4.81 0 0 1-.982-1.46l-1.834.799zm1.401 2.075c.6.587 1.288 1.05 2.06 1.386l.799-1.834a4.81 4.81 0 0 1-1.46-.982l-1.399 1.429zM4.475 13.3c.798.329 1.643.492 2.525.492v-2c-.632 0-1.217-.115-1.763-.34L4.475 13.3z" fill="#fff"/></svg>