<svg xmlns="http://www.w3.org/2000/svg" width="14" height="15" fill="none" xmlns:v="https://vecta.io/nano"><path d="M6.232 10.232V5h1.536v5.232H6.232zm.784-5.808c-.245 0-.448-.059-.608-.176s-.24-.304-.24-.56c0-.288.08-.48.24-.576.16-.107.363-.16.608-.16.213 0 .4.053.56.16.171.096.256.288.256.576 0 .267-.085.459-.256.576-.16.107-.347.16-.56.16zM7 14.216c-.96 0-1.861-.181-2.704-.544-.832-.352-1.568-.843-2.208-1.472C1.459 11.56.963 10.824.6 9.992.248 9.149.072 8.248.072 7.288S.248 5.432.6 4.6c.363-.843.859-1.579 1.488-2.208A6.89 6.89 0 0 1 4.296.904C5.139.541 6.04.36 7 .36s1.856.181 2.688.544c.843.352 1.579.848 2.208 1.488.64.629 1.136 1.365 1.488 2.208.363.832.544 1.728.544 2.688s-.181 1.861-.544 2.704a6.89 6.89 0 0 1-1.488 2.208 6.79 6.79 0 0 1-2.208 1.472c-.832.363-1.728.544-2.688.544zm0-1.424c.768 0 1.483-.139 2.144-.416a5.61 5.61 0 0 0 1.744-1.184c.512-.512.907-1.099 1.184-1.76.288-.672.432-1.387.432-2.144a5.31 5.31 0 0 0-.432-2.144c-.277-.661-.672-1.243-1.184-1.744-.501-.512-1.088-.907-1.76-1.184A5.27 5.27 0 0 0 7 1.784a5.31 5.31 0 0 0-2.144.432c-.661.277-1.248.672-1.76 1.184a5.56 5.56 0 0 0-1.184 1.76c-.277.661-.416 1.371-.416 2.128 0 .768.139 1.483.416 2.144a5.81 5.81 0 0 0 1.184 1.76 5.81 5.81 0 0 0 1.76 1.184c.672.277 1.387.416 2.144.416z" fill="#fff"/></svg>