<svg xmlns="http://www.w3.org/2000/svg" width="37" height="23" fill="none" xmlns:v="https://vecta.io/nano"><path d="M.939 20.439a1.5 1.5 0 1 0 2.121 2.121L.939 20.439zM37 2A1.5 1.5 0 0 0 35.5.5H22a1.5 1.5 0 1 0 0 3h12v12a1.5 1.5 0 1 0 3 0V2zM19.793 16.293l1.061-1.061-1.061 1.061zm1.414 0l1.061 1.061-1.061-1.061zM3.06 22.561l10.793-10.793-2.121-2.121L.939 20.439l2.121 2.121zm10.086-10.793l5.586 5.586 2.121-2.121-5.586-5.586-2.121 2.121zm9.121 5.586L36.56 3.061 34.439.939 20.146 15.232l2.121 2.121zm-3.535 0a2.5 2.5 0 0 0 3.535 0l-2.121-2.121a.5.5 0 0 1 .707 0l-2.121 2.121zm-4.879-5.586a.5.5 0 0 1-.707 0l2.121-2.121a2.5 2.5 0 0 0-3.536 0l2.121 2.121z" fill="#0091a6"/></svg>