<svg xmlns="http://www.w3.org/2000/svg" width="34" height="38" fill="none" xmlns:v="https://vecta.io/nano"><path d="M16.992 33.736c-2.064 0-4.008-.396-5.832-1.188-1.8-.768-3.384-1.836-4.752-3.204s-2.448-2.952-3.24-4.752c-.768-1.824-1.152-3.768-1.152-5.832s.384-3.996 1.152-5.796c.792-1.824 1.872-3.42 3.24-4.788S9.36 5.74 11.16 4.972c1.824-.792 3.768-1.188 5.832-1.188s3.996.396 5.796 1.188c1.824.768 3.42 1.836 4.788 3.204s2.436 2.964 3.204 4.788c.792 1.8 1.188 3.732 1.188 5.796s-.396 4.008-1.188 5.832c-.768 1.8-1.836 3.384-3.204 4.752s-2.964 2.436-4.788 3.204c-1.8.792-3.732 1.188-5.796 1.188zm-4.932-6.552h4.176v-4.14H9.828l2.196-3.78 1.62.936.252-.468-2.412-3.708-4.428-.288-.324.504 1.656.972-1.008 1.8a3.83 3.83 0 0 0-.288.648c-.048.216-.072.444-.072.684 0 .264.036.54.108.828.072.264.18.528.324.792L9.54 25.6c.264.456.624.84 1.08 1.152.456.288.936.432 1.44.432zm7.056 1.908h.576v-1.908h2.124a2.48 2.48 0 0 0 1.404-.432c.456-.288.816-.66 1.08-1.116l2.088-3.672c.144-.264.252-.528.324-.792.096-.288.144-.564.144-.828a2.15 2.15 0 0 0-.108-.684c-.048-.216-.132-.42-.252-.612l-2.052-3.636-3.6 2.088 3.168 5.544h-4.32v-1.908h-.576l-1.98 3.996 1.98 3.96zm-5.364-12.924l3.204-5.544 2.16 3.78-1.656.972.288.504 4.428-.288 2.448-3.708-.288-.468-1.656.936-1.044-1.872c-.24-.456-.6-.804-1.08-1.044-.456-.24-.96-.36-1.512-.36h-4.212c-.528 0-1.032.12-1.512.36s-.852.588-1.116 1.044l-2.052 3.636 3.6 2.052z" fill="#0091a6"/></svg>