<svg width="14" height="15" viewBox="0 0 14 15" fill="none" xmlns="http://www.w3.org/2000/svg">
<path d="M6.232 10.232V5H7.768V10.232H6.232ZM7.016 4.424C6.77067 4.424 6.568 4.36533 6.408 4.248C6.248 4.13067 6.168 3.944 6.168 3.688C6.168 3.4 6.248 3.208 6.408 3.112C6.568 3.00533 6.77067 2.952 7.016 2.952C7.22933 2.952 7.416 3.00533 7.576 3.112C7.74667 3.208 7.832 3.4 7.832 3.688C7.832 3.95467 7.74667 4.14667 7.576 4.264C7.416 4.37067 7.22933 4.424 7.016 4.424ZM7 14.216C6.04 14.216 5.13867 14.0347 4.296 13.672C3.464 13.32 2.728 12.8293 2.088 12.2C1.45867 11.56 0.962667 10.824 0.6 9.992C0.248 9.14933 0.072 8.248 0.072 7.288C0.072 6.328 0.248 5.432 0.6 4.6C0.962667 3.75733 1.45867 3.02133 2.088 2.392C2.728 1.752 3.464 1.256 4.296 0.903999C5.13867 0.541333 6.04 0.36 7 0.36C7.96 0.36 8.856 0.541333 9.688 0.903999C10.5307 1.256 11.2667 1.752 11.896 2.392C12.536 3.02133 13.032 3.75733 13.384 4.6C13.7467 5.432 13.928 6.328 13.928 7.288C13.928 8.248 13.7467 9.14933 13.384 9.992C13.032 10.824 12.536 11.56 11.896 12.2C11.2667 12.8293 10.5307 13.32 9.688 13.672C8.856 14.0347 7.96 14.216 7 14.216ZM7 12.792C7.768 12.792 8.48267 12.6533 9.144 12.376C9.80533 12.088 10.3867 11.6933 10.888 11.192C11.4 10.68 11.7947 10.0933 12.072 9.432C12.36 8.76 12.504 8.04533 12.504 7.288C12.504 6.52 12.36 5.80533 12.072 5.144C11.7947 4.48267 11.4 3.90133 10.888 3.4C10.3867 2.888 9.8 2.49333 9.128 2.216C8.46667 1.928 7.75733 1.784 7 1.784C6.232 1.784 5.51733 1.928 4.856 2.216C4.19467 2.49333 3.608 2.888 3.096 3.4C2.59467 3.90133 2.2 4.488 1.912 5.16C1.63467 5.82133 1.496 6.53067 1.496 7.288C1.496 8.056 1.63467 8.77067 1.912 9.432C2.2 10.0933 2.59467 10.68 3.096 11.192C3.608 11.6933 4.19467 12.088 4.856 12.376C5.528 12.6533 6.24267 12.792 7 12.792Z" fill="#54585B"/>
<path d="M6.232 10.232H5.232V11.232H6.232V10.232ZM6.232 5V4H5.232V5H6.232ZM7.768 5H8.768V4H7.768V5ZM7.768 10.232V11.232H8.768V10.232H7.768ZM6.408 4.248L6.99937 3.4416L6.99936 3.44159L6.408 4.248ZM6.408 3.112L6.9225 3.96949L6.9429 3.95725L6.9627 3.94405L6.408 3.112ZM7.576 3.112L7.0213 3.94405L7.05277 3.96503L7.08574 3.98358L7.576 3.112ZM7.576 4.264L8.1307 5.09605L8.13664 5.09209L8.14253 5.08804L7.576 4.264ZM4.296 13.672L4.69133 12.7534L4.68564 12.751L4.296 13.672ZM2.088 12.2L1.37498 12.9011L1.38087 12.9071L1.38686 12.913L2.088 12.2ZM0.6 9.992L-0.322731 10.3774L-0.319768 10.3845L-0.316696 10.3916L0.6 9.992ZM0.6 4.6L-0.31856 4.20467L-0.320967 4.21036L0.6 4.6ZM2.088 2.392L1.38089 1.68489L1.38089 1.68489L2.088 2.392ZM4.296 0.903999L4.68565 1.82498L4.69132 1.82254L4.296 0.903999ZM9.688 0.903999L9.28842 1.8207L9.29546 1.82377L9.30256 1.82673L9.688 0.903999ZM11.896 2.392L11.183 3.09314L11.1889 3.09913L11.1949 3.10502L11.896 2.392ZM13.384 4.6L12.4613 4.98544L12.4642 4.99254L12.4673 4.99958L13.384 4.6ZM13.384 9.992L12.4654 9.59667L12.463 9.60236L13.384 9.992ZM11.896 12.2L12.6031 12.9071L11.896 12.2ZM9.688 13.672L9.30256 12.7493L9.29546 12.7522L9.28841 12.7553L9.688 13.672ZM9.144 12.376L9.53076 13.2983L9.54327 13.2928L9.144 12.376ZM10.888 11.192L11.5951 11.8991V11.8991L10.888 11.192ZM12.072 9.432L11.1528 9.03807L11.1498 9.04527L12.072 9.432ZM12.072 5.144L11.1497 5.53076L11.1552 5.54327L12.072 5.144ZM10.888 3.4L10.1735 4.09962L10.1809 4.10715L10.1884 4.11451L10.888 3.4ZM9.128 2.216L8.72873 3.13283L8.73759 3.13669L8.74651 3.14037L9.128 2.216ZM4.856 2.216L5.24276 3.13828L5.25527 3.13283L4.856 2.216ZM3.096 3.4L2.38889 2.69289L3.096 3.4ZM1.912 5.16L0.992827 4.76607L0.989806 4.77327L1.912 5.16ZM1.912 9.432L0.98972 9.81876L0.995165 9.83127L1.912 9.432ZM3.096 11.192L2.38149 11.8916L2.38885 11.8991L2.39638 11.9065L3.096 11.192ZM4.856 12.376L4.45673 13.2928L4.46559 13.2967L4.47451 13.3004L4.856 12.376ZM7.232 10.232V5H5.232V10.232H7.232ZM6.232 6H7.768V4H6.232V6ZM6.768 5V10.232H8.768V5H6.768ZM7.768 9.232H6.232V11.232H7.768V9.232ZM7.016 3.424C6.9725 3.424 6.95573 3.41876 6.95806 3.41944C6.95934 3.41981 6.96459 3.42146 6.9726 3.42534C6.9807 3.42927 6.98993 3.43468 6.99937 3.4416L5.81664 5.0544C6.18522 5.3247 6.60908 5.424 7.016 5.424V3.424ZM6.99936 3.44159C7.06705 3.49123 7.11846 3.55915 7.14715 3.62608C7.17244 3.68511 7.168 3.71462 7.168 3.688H5.168C5.168 4.16068 5.3274 4.69563 5.81664 5.05441L6.99936 3.44159ZM7.168 3.688C7.168 3.62865 7.17736 3.64954 7.15108 3.71262C7.11879 3.7901 7.04661 3.89503 6.9225 3.96949L5.89351 2.25451C5.29129 2.61583 5.168 3.25236 5.168 3.688H7.168ZM6.9627 3.94405C6.94288 3.95726 6.93042 3.96014 6.93449 3.95907C6.94006 3.95761 6.96501 3.952 7.016 3.952V1.952C6.62742 1.952 6.2175 2.03715 5.8533 2.27995L6.9627 3.94405ZM7.016 3.952C7.03884 3.952 7.04563 3.95477 7.04128 3.95352C7.03937 3.95298 7.03606 3.95186 7.03194 3.94996C7.02782 3.94806 7.02416 3.94596 7.0213 3.94405L8.1307 2.27995C7.78871 2.05195 7.40432 1.952 7.016 1.952V3.952ZM7.08574 3.98358C7.0334 3.95414 6.98345 3.91457 6.94059 3.86636C6.89825 3.81873 6.87092 3.77179 6.85419 3.73414C6.8231 3.6642 6.832 3.63518 6.832 3.688H8.832C8.832 3.22604 8.68674 2.58944 8.06626 2.24042L7.08574 3.98358ZM6.832 3.688C6.832 3.71775 6.82692 3.68721 6.85419 3.62586C6.88535 3.55576 6.94038 3.48746 7.00947 3.43996L8.14253 5.08804C8.66132 4.73137 8.832 4.17832 8.832 3.688H6.832ZM7.0213 3.43195C7.02416 3.43004 7.02782 3.42794 7.03194 3.42604C7.03606 3.42414 7.03937 3.42302 7.04128 3.42248C7.04563 3.42123 7.03884 3.424 7.016 3.424V5.424C7.40432 5.424 7.78871 5.32405 8.1307 5.09605L7.0213 3.43195ZM7 13.216C6.1695 13.216 5.40334 13.0599 4.69132 12.7535L3.90068 14.5905C4.87399 15.0094 5.9105 15.216 7 15.216V13.216ZM4.68564 12.751C3.96887 12.4478 3.33874 12.0274 2.78914 11.487L1.38686 12.913C2.11727 13.6313 2.95913 14.1922 3.90636 14.593L4.68564 12.751ZM2.80102 11.4989C2.25843 10.9471 1.83104 10.3136 1.5167 9.59241L-0.316696 10.3916C0.0942892 11.3344 0.658907 12.1729 1.37498 12.9011L2.80102 11.4989ZM1.52273 9.60655C1.22433 8.89219 1.072 8.12256 1.072 7.288H-0.928C-0.928 8.37344 -0.728327 9.40647 -0.322731 10.3774L1.52273 9.60655ZM1.072 7.288C1.072 6.45335 1.22434 5.69076 1.52097 4.98964L-0.320967 4.21036C-0.728341 5.17324 -0.928 6.20265 -0.928 7.288H1.072ZM1.51854 4.99532C1.83269 4.26539 2.25814 3.63608 2.79511 3.09911L1.38089 1.68489C0.659197 2.40659 0.0926424 3.24928 -0.318543 4.20468L1.51854 4.99532ZM2.79511 3.09911C3.34422 2.54999 3.97248 2.12669 4.68564 1.82497L3.90636 -0.016968C2.95553 0.385308 2.11178 0.954004 1.38089 1.68489L2.79511 3.09911ZM4.69132 1.82254C5.40334 1.5161 6.1695 1.36 7 1.36V-0.64C5.9105 -0.64 4.87399 -0.433438 3.90068 -0.0145433L4.69132 1.82254ZM7 1.36C7.83057 1.36 8.58967 1.51611 9.28842 1.8207L10.0876 -0.0126967C9.12234 -0.433447 8.08943 -0.64 7 -0.64V1.36ZM9.30256 1.82673C10.0246 2.12833 10.6487 2.54976 11.183 3.09314L12.609 1.69086C11.8847 0.954242 11.0368 0.38367 10.0734 -0.0187317L9.30256 1.82673ZM11.1949 3.10502C11.7382 3.63935 12.1597 4.26344 12.4613 4.98544L14.3067 4.21455C13.9043 3.25123 13.3338 2.40332 12.5971 1.67898L11.1949 3.10502ZM12.4673 4.99958C12.7719 5.69833 12.928 6.45743 12.928 7.288H14.928C14.928 6.19857 14.7214 5.16566 14.3007 4.20041L12.4673 4.99958ZM12.928 7.288C12.928 8.1185 12.7719 8.88466 12.4655 9.59668L14.3025 10.3873C14.7214 9.41401 14.928 8.3775 14.928 7.288H12.928ZM12.463 9.60236C12.1613 10.3155 11.738 10.9438 11.1889 11.4929L12.6031 12.9071C13.334 12.1762 13.9027 11.3325 14.305 10.3816L12.463 9.60236ZM11.1889 11.4929C10.6541 12.0277 10.0282 12.4462 9.30256 12.7493L10.0734 14.5947C11.0332 14.1938 11.8792 13.631 12.6031 12.9071L11.1889 11.4929ZM9.28841 12.7553C8.58967 13.0599 7.83057 13.216 7 13.216V15.216C8.08943 15.216 9.12234 15.0094 10.0876 14.5887L9.28841 12.7553ZM7 13.792C7.89126 13.792 8.73843 13.6304 9.53073 13.2982L8.75727 11.4538C8.2269 11.6762 7.64474 11.792 7 11.792V13.792ZM9.54327 13.2928C10.3174 12.9557 11.0036 12.4906 11.5951 11.8991L10.1809 10.4849C9.76969 10.8961 9.29327 11.2203 8.74473 11.4592L9.54327 13.2928ZM11.5951 11.8991C12.198 11.2962 12.6661 10.601 12.9942 9.81873L11.1498 9.04527C10.9232 9.58568 10.602 10.0638 10.1809 10.4849L11.5951 11.8991ZM12.9911 9.82592C13.3344 9.02496 13.504 8.1758 13.504 7.288H11.504C11.504 7.91487 11.3856 8.49504 11.1529 9.03808L12.9911 9.82592ZM13.504 7.288C13.504 6.39164 13.3352 5.54005 12.9888 4.74473L11.1552 5.54327C11.3848 6.07061 11.504 6.64836 11.504 7.288H13.504ZM12.9942 4.75727C12.6653 3.97303 12.195 3.28022 11.5876 2.68549L10.1884 4.11451C10.605 4.52245 10.924 4.99231 11.1498 5.53073L12.9942 4.75727ZM11.6025 2.70037C11.0051 2.09027 10.3047 1.6198 9.50949 1.29163L8.74651 3.14037C9.29531 3.36686 9.76822 3.68573 10.1735 4.09962L11.6025 2.70037ZM9.52727 1.29917C8.73371 0.953585 7.88773 0.783999 7 0.783999V2.784C7.62694 2.784 8.19962 2.90241 8.72873 3.13283L9.52727 1.29917ZM7 0.783999C6.10364 0.783999 5.25205 0.952816 4.45673 1.29916L5.25527 3.13283C5.78261 2.90318 6.36036 2.784 7 2.784V0.783999ZM4.46927 1.29381C3.68701 1.62185 2.9918 2.08999 2.38889 2.69289L3.80311 4.10711C4.2242 3.68601 4.70232 3.36482 5.24273 3.13819L4.46927 1.29381ZM2.38889 2.69289C1.79478 3.287 1.32937 3.98087 0.992855 4.76608L2.83115 5.55392C3.07063 4.99513 3.39455 4.51566 3.80311 4.10711L2.38889 2.69289ZM0.989806 4.77327C0.658271 5.56386 0.496 6.40543 0.496 7.288H2.496C2.496 6.6559 2.61106 6.07881 2.83419 5.54673L0.989806 4.77327ZM0.496 7.288C0.496 8.17926 0.657554 9.02643 0.989806 9.81873L2.83419 9.04527C2.61178 8.5149 2.496 7.93274 2.496 7.288H0.496ZM0.995165 9.83127C1.33144 10.6034 1.79442 11.2921 2.38149 11.8916L3.81051 10.4924C3.39491 10.0679 3.06857 9.58322 2.82884 9.03273L0.995165 9.83127ZM2.39638 11.9065C2.99593 12.4936 3.68456 12.9566 4.45673 13.2928L5.25527 11.4592C4.70478 11.2194 4.22007 10.8931 3.79563 10.4775L2.39638 11.9065ZM4.47451 13.3004C5.27254 13.6297 6.11735 13.792 7 13.792V11.792C6.36799 11.792 5.78346 11.6769 5.23749 11.4516L4.47451 13.3004Z" fill="#54585B"/>
</svg>
